<?xml version="1.0" encoding="utf-8"?>
<!-- Generator: Adobe Illustrator 18.0.0, SVG Export Plug-In . SVG Version: 6.00 Build 0)  -->
<!DOCTYPE svg PUBLIC "-//W3C//DTD SVG 1.1//EN" "http://www.w3.org/Graphics/SVG/1.1/DTD/svg11.dtd">
<svg version="1.1" id="Layer_1" xmlns="http://www.w3.org/2000/svg" xmlns:xlink="http://www.w3.org/1999/xlink" x="0px" y="0px"
	 viewBox="85 193.9 790 116.8" enable-background="new 85 193.9 790 116.8" xml:space="preserve">
<g id="Layer_1_1_">
</g>
<g id="Layer_2">
	<g>
		<g>
			<path fill="#333333" stroke="#FFFFFF" stroke-miterlimit="10" d="M730.6,193.9c0,0,5.5,0,5.9,0c0,0,13.9,0,16.5,0
				c8.1,8.8,85.1,87.3,85.1,87.3h0.4v-87.3h24.2c0,0,0,96.5,0,116.7c0,0-21.7,0-23.1,0c-12.8-12.8-84.4-89.2-84.4-89.2h-0.4V296
				c0,0,0.4,14.7-18.7,14.7c-1.5,0-5.5,0-5.5,0S730.6,225.9,730.6,193.9z"/>
			<path fill="#333333" stroke="#FFFFFF" stroke-miterlimit="10" d="M200.7,209c-4.4,0-6.2-0.4-18.3-0.4c-39.3,0-65,17.6-65,43.7
				c0,27.5,28.6,43.7,63.9,43.7c26.4,0,30.1-2.6,30.1-2.6s-4.8,17.2-20.9,17.2c-4.8,0,5.1,0-4.8,0c-58.7,0-93.6-21.7-93.6-58.7
				c0-36,37.8-58,89.5-58c13.2,0,25.7,0,37.8,0C219.1,193.9,215.4,209.4,200.7,209z"/>
			<path fill="#333333" stroke="#FFFFFF" stroke-miterlimit="10" d="M305.3,216.3c0,0-49.5,85.5-54.7,94.3c-6.2,0-25.3,0-25.3,0
				s58.3-93.9,72.3-116.7c8.8,0,8.4,0,17.6,0c2.2,3.7,71.6,116.7,71.6,116.7h-26.4l-21.7-36h-56.1c0,0,4-14.7,21.7-14.7
				c13.6,0,26.8,0,26.8,0S308.6,221.8,305.3,216.3z"/>
			<path fill="#333333" stroke="#FFFFFF" stroke-miterlimit="10" d="M435.6,269.2V296c0,0,0.4,14.7-18.7,14.7c-2.9,0-5.9,0-5.9,0
				V193.9h44.4c34.5,0,66.1,9.2,66.1,37.4s-31.9,37.8-62.4,37.8h-15.8c0,0,3.7-14.7,18.7-14.7c0.4,0,2.6,0,2.6,0
				c13.9,0,33.8-6.2,33.8-23.1c0-18.3-23.9-22.8-42.6-22.8h-20.6v45.9v14.7h0.4V269.2z"/>
			<path fill="#333333" stroke="#FFFFFF" stroke-miterlimit="10" d="M546.4,193.9c0,0,2.6,0,5.9,0c2.9,0,18.3,0,18.3,0v102h62.8
				c0,0-3.3,14.7-18.3,14.7c-3.3,0-68.6,0-68.6,0L546.4,193.9L546.4,193.9z"/>
			<path fill="#333333" stroke="#FFFFFF" stroke-miterlimit="10" d="M659.4,193.9h23.9v102l0,0c0,0,0,14.7-18.3,14.7
				c-3.3,0-5.5,0-5.5,0V193.9H659.4z"/>
		</g>
	</g>
</g>
</svg>
