<?xml version="1.0" encoding="utf-8"?>
<!-- Generator: Adobe Illustrator 16.0.3, SVG Export Plug-In . SVG Version: 6.00 Build 0)  -->
<!DOCTYPE svg PUBLIC "-//W3C//DTD SVG 1.1//EN" "http://www.w3.org/Graphics/SVG/1.1/DTD/svg11.dtd">
<svg version="1.1" id="icon-expand-group" xmlns="http://www.w3.org/2000/svg" xmlns:xlink="http://www.w3.org/1999/xlink" x="0px"
	 y="0px" width="24px" height="24px" viewBox="0 0 24 24" enable-background="new 0 0 24 24" xml:space="preserve">
<path id="circle" d="M12,22.018C6.477,22.018,1.983,17.523,1.983,12C1.983,6.477,6.477,1.983,12,1.983
	c5.523,0,10.018,4.494,10.018,10.017C22.018,17.523,17.523,22.018,12,22.018z M12,2.984c-4.972,0-9.016,4.044-9.016,9.016
	c0,4.973,4.044,9.018,9.016,9.018c4.973,0,9.018-4.045,9.018-9.018C21.018,7.028,16.973,2.984,12,2.984z"/>
<path id="cross-v" d="M12,17.68c-0.276,0-0.5-0.224-0.5-0.5V6.82c0-0.276,0.224-0.5,0.5-0.5s0.5,0.224,0.5,0.5v10.36
	C12.5,17.456,12.276,17.68,12,17.68z"/>
<path id="cross-h" d="M17.18,12.5H6.82c-0.276,0-0.5-0.224-0.5-0.5s0.224-0.5,0.5-0.5h10.36c0.276,0,0.5,0.224,0.5,0.5
	S17.456,12.5,17.18,12.5z"/>
</svg>
